<?xml version="1.0" standalone="no"?>
<!DOCTYPE svg PUBLIC "-//W3C//DTD SVG 20010904//EN"
 "http://www.w3.org/TR/2001/REC-SVG-20010904/DTD/svg10.dtd">
<svg version="1.0" xmlns="http://www.w3.org/2000/svg"
 width="512.000000pt" height="512.000000pt" viewBox="0 0 512.000000 512.000000"
 preserveAspectRatio="xMidYMid meet">
<metadata>
Created by potrace 1.14, written by Peter Selinger 2001-2017
</metadata>
<g transform="translate(0.000000,512.000000) scale(0.100000,-0.100000)"
fill="#000000" stroke="none">
<path d="M1526 3114 c-3 -9 -6 -20 -6 -25 0 -5 389 -9 975 -9 l975 0 -12 25
-11 25 -958 0 c-863 0 -957 -2 -963 -16z"/>
<path d="M2576 2858 c-23 -33 -23 -279 0 -302 13 -14 52 -16 273 -16 186 0
260 3 269 12 17 17 17 299 0 316 -9 9 -83 12 -269 12 -255 0 -258 0 -273 -22z"/>
<path d="M1800 2840 c-12 -7 -16 -37 -18 -138 -3 -109 -1 -132 13 -146 24 -24
426 -24 445 0 17 20 16 260 -1 280 -9 11 -56 14 -218 14 -113 0 -213 -5 -221
-10z"/>
<path d="M3602 2465 c0 -16 2 -22 5 -12 2 9 2 23 0 30 -3 6 -5 -1 -5 -18z"/>
<path d="M1441 2464 c0 -11 3 -14 6 -6 3 7 2 16 -1 19 -3 4 -6 -2 -5 -13z"/>
<path d="M1470 2455 l0 -25 1055 0 1055 0 0 25 0 25 -1055 0 -1055 0 0 -25z"/>
<path d="M1442 2415 c0 -16 2 -22 5 -12 2 9 2 23 0 30 -3 6 -5 -1 -5 -18z"/>
<path d="M1442 2350 c0 -19 2 -27 5 -17 2 9 2 25 0 35 -3 9 -5 1 -5 -18z"/>
<path d="M3140 2211 c-15 -29 -12 -83 6 -109 17 -25 71 -31 92 -10 7 7 12 35
12 63 0 28 -5 56 -12 63 -20 20 -86 15 -98 -7z"/>
<path d="M1471 2154 c0 -11 3 -14 6 -6 3 7 2 16 -1 19 -3 4 -6 -2 -5 -13z"/>
<path d="M2533 2071 l-38 -48 -83 5 c-68 4 -86 2 -101 -12 -16 -15 -37 -17
-157 -13 -77 3 -143 6 -149 7 -27 6 -274 -23 -339 -40 -90 -23 -232 -89 -264
-123 -82 -88 -16 -181 148 -207 90 -14 1932 -14 2020 1 89 14 150 46 175 92
l20 37 -20 37 c-49 93 -328 193 -536 193 -49 0 -72 4 -84 16 -13 13 -31 16
-91 12 l-74 -5 -35 48 -35 49 -160 0 -160 0 -37 -49z m368 12 c13 -16 12 -17
-3 -4 -17 13 -22 21 -14 21 2 0 10 -8 17 -17z m-89 -42 c60 -67 26 -177 -62
-201 -110 -30 -202 91 -141 184 29 44 58 57 120 53 46 -3 59 -9 83 -36z"/>
<path d="M1849 2019 c-6 -4 1 -6 15 -6 15 0 28 2 30 6 3 4 -4 7 -15 7 -11 0
-25 -3 -30 -7z"/>
<path d="M1798 2013 c7 -3 16 -2 19 1 4 3 -2 6 -13 5 -11 0 -14 -3 -6 -6z"/>
<path d="M3288 2013 c7 -3 16 -2 19 1 4 3 -2 6 -13 5 -11 0 -14 -3 -6 -6z"/>
<path d="M5107 1105 c1 -59 -2 -85 -10 -85 -8 0 -8 -3 1 -9 17 -11 6 -57 -19
-74 -13 -10 -19 -29 -21 -72 -2 -37 -8 -59 -16 -61 -7 -1 -8 0 -2 3 5 2 10 9
10 14 0 6 -5 7 -12 3 -7 -5 -9 -2 -6 8 4 8 3 20 -2 27 -5 10 -14 5 -34 -15
-14 -16 -26 -32 -26 -36 0 -4 -8 -9 -18 -12 -11 -4 -24 -17 -31 -30 -8 -13
-29 -28 -51 -35 -21 -6 -43 -18 -50 -26 -9 -11 -16 -12 -25 -5 -17 14 -43 3
-50 -21 -4 -11 -16 -19 -28 -19 -12 0 -29 -6 -39 -13 -10 -8 -41 -12 -80 -11
-34 1 -69 -3 -77 -9 -7 -6 -30 -11 -50 -12 -29 0 -36 -4 -36 -20 0 -21 -9 -23
-116 -29 -20 -1 -44 -7 -53 -15 -13 -11 -18 -10 -32 3 -18 18 -41 16 -36 -3 1
-8 -10 -11 -34 -9 -33 3 -39 -1 -53 -29 -15 -30 -19 -32 -55 -26 -28 4 -37 3
-32 -5 5 -8 -2 -10 -23 -6 -23 5 -32 2 -37 -10 -8 -20 -28 -21 -44 -1 -13 16
-45 21 -36 6 10 -15 -18 -20 -34 -6 -8 7 -26 16 -40 19 -24 7 -24 6 3 -9 38
-22 34 -28 -8 -8 -19 9 -36 23 -39 32 -3 9 -4 4 -2 -10 2 -24 0 -26 -42 -27
-25 0 -56 -6 -69 -13 -18 -10 -28 -10 -47 0 -26 15 -46 8 -46 -15 0 -22 -31
-17 -37 7 -8 27 -45 21 -53 -9 -5 -22 -6 -21 -18 8 -17 37 -48 40 -54 5 -3
-13 0 -26 6 -29 6 -2 3 -5 -6 -5 -11 -1 -18 -9 -18 -21 0 -20 0 -20 19 -1 13
13 17 27 13 47 -5 29 -5 29 17 10 11 -11 21 -25 21 -31 0 -16 108 -27 149 -15
17 5 31 5 31 0 0 -13 -14 -19 -48 -22 -24 -2 -29 -5 -20 -15 5 -7 8 -20 4 -28
-4 -10 2 -19 17 -25 15 -6 17 -9 6 -9 -19 -1 -42 23 -33 32 4 4 -12 9 -34 13
-22 3 -43 13 -46 20 -8 21 -26 17 -26 -6 0 -11 7 -20 15 -20 8 0 15 -8 15 -17
1 -16 2 -16 13 -3 7 9 20 14 30 12 16 -3 15 -6 -8 -18 -26 -13 -29 -12 -53 11
-27 27 -53 35 -32 10 7 -8 9 -15 5 -15 -4 0 -14 8 -21 18 -7 9 -14 12 -14 5 0
-15 -59 -8 -74 8 -8 9 -8 10 2 5 6 -4 12 -2 12 4 0 7 -6 10 -12 7 -46 -18 -51
-20 -45 -11 9 16 -8 35 -32 37 -23 1 -23 1 3 24 30 25 32 33 10 33 -8 0 -13
-4 -10 -9 13 -21 -27 -34 -99 -32 -42 1 -81 -2 -88 -6 -14 -9 -38 -12 -140
-16 -43 -1 -81 -8 -85 -13 -10 -16 -42 -13 -42 4 0 10 -6 12 -17 7 -10 -4 -23
-8 -30 -8 -7 0 -10 -4 -8 -8 3 -4 15 -5 27 -1 17 4 20 2 15 -11 -10 -26 18
-41 39 -20 16 16 17 16 12 1 -4 -9 -2 -19 5 -22 7 -2 0 -5 -14 -5 -15 -1 -32
6 -39 14 -10 12 -16 13 -27 3 -8 -6 -25 -12 -38 -13 -18 0 -21 2 -13 12 6 7
21 13 34 13 13 0 24 4 24 9 0 6 -9 8 -20 6 -11 -2 -19 -1 -19 3 4 23 -4 32
-25 32 -14 0 -28 -5 -31 -10 -4 -7 -12 -7 -25 0 -28 15 -57 12 -64 -6 -5 -13
-9 -14 -21 -4 -9 7 -28 10 -47 6 -18 -3 -39 -2 -47 3 -9 6 -21 5 -31 -2 -13
-8 -26 -6 -53 6 -44 21 -47 21 -47 -2 0 -27 -17 -35 -23 -11 -3 11 -1 18 4 14
5 -3 9 0 9 5 0 15 -26 14 -50 -1 -15 -10 -23 -9 -39 6 -16 15 -18 22 -9 33 14
17 -4 39 -23 27 -9 -5 -8 -9 7 -15 17 -7 17 -8 1 -8 -9 -1 -16 -4 -15 -8 0 -5
-2 -16 -6 -26 -9 -18 -36 -24 -36 -7 0 13 -37 13 -45 -1 -4 -6 -14 -8 -22 -5
-9 4 -12 1 -8 -7 4 -6 0 -4 -8 6 -12 14 -19 16 -42 7 -22 -8 -31 -7 -46 6 -18
16 -20 16 -38 0 -17 -15 -19 -15 -32 0 -9 11 -22 14 -41 10 -24 -5 -28 -2 -28
18 0 13 -7 30 -16 37 -15 12 -19 11 -31 -8 l-15 -23 -26 20 c-23 19 -26 19
-44 4 -10 -10 -18 -23 -18 -31 0 -7 -8 -13 -17 -13 -9 0 -14 -3 -11 -6 7 -6
-39 -54 -52 -54 -5 0 -13 7 -18 16 -8 15 -11 14 -25 -6 l-16 -23 4 29 c2 16 4
41 4 57 1 15 6 27 12 27 6 0 9 -12 7 -27 -3 -25 0 -28 22 -25 59 6 100 38 71
56 -16 10 -41 -6 -41 -26 0 -11 -5 -18 -12 -16 -7 3 -13 10 -13 17 0 7 -9 19
-19 27 -17 12 -22 12 -37 -2 -17 -15 -19 -15 -35 0 -18 18 -49 18 -49 -1 0
-24 -15 -25 -34 -2 -16 20 -21 21 -35 10 -19 -16 -48 -7 -40 13 7 17 -7 27
-49 32 -24 4 -28 2 -17 -5 8 -6 23 -11 33 -11 9 0 17 -5 17 -11 0 -6 -7 -8
-17 -5 -9 4 -20 1 -24 -5 -5 -9 -12 -8 -24 4 -9 10 -29 17 -45 17 -22 0 -29 5
-32 22 -5 35 -44 36 -52 2 -6 -24 -19 -26 -22 -3 -1 5 -2 13 -3 18 -2 15 -33
22 -46 11 -9 -7 -21 -7 -40 2 -21 9 -31 9 -46 0 -15 -10 -24 -9 -42 2 -14 9
-27 12 -36 7 -8 -5 -27 -3 -48 5 -32 14 -34 13 -42 -8 -5 -13 -7 -26 -4 -31 7
-12 48 -8 69 8 22 16 38 20 29 6 -3 -5 0 -13 6 -16 17 -11 23 3 8 22 -12 14
-10 14 14 -2 23 -15 33 -16 47 -7 14 8 20 8 22 0 2 -6 25 -11 51 -12 36 -1 49
-5 53 -18 8 -26 33 -22 40 7 8 32 22 32 34 0 7 -18 17 -25 37 -25 18 0 24 -3
15 -8 -7 -5 -10 -16 -7 -25 4 -10 -1 -20 -16 -28 -14 -7 -24 -8 -26 -2 -2 5
-17 7 -33 5 -25 -4 -30 -1 -30 17 0 12 -4 20 -9 16 -6 -3 -14 3 -20 12 -8 15
-13 16 -30 5 -13 -7 -21 -8 -21 -2 0 5 -9 10 -19 10 -11 0 -21 5 -23 11 -3 8
-10 5 -21 -6 -10 -9 -20 -15 -24 -12 -3 3 -16 2 -29 -3 -19 -7 -24 -6 -24 5 0
8 -4 15 -9 15 -4 0 -7 -16 -5 -35 1 -19 -2 -37 -7 -41 -5 -3 -9 5 -9 18 0 39
-14 51 -51 44 -28 -5 -37 -2 -47 14 -8 14 -9 20 -1 20 6 0 9 7 6 14 -4 10 -1
13 9 9 7 -3 14 0 14 6 0 13 -56 15 -65 1 -6 -10 -35 -3 -33 8 1 4 -5 19 -12
35 -13 27 -30 36 -30 17 0 -16 -18 -12 -40 10 -17 17 -23 18 -39 8 -16 -10
-23 -9 -40 6 -18 16 -23 17 -37 5 -14 -11 -19 -10 -34 8 -14 18 -24 21 -54 16
-31 -5 -36 -3 -36 13 0 11 -4 25 -8 32 -11 17 -42 5 -42 -17 -1 -14 -2 -14
-14 2 -7 9 -24 17 -37 17 -22 0 -21 -2 10 -21 33 -20 35 -20 48 -3 7 10 13 13
13 5 0 -7 5 -9 10 -6 6 3 10 -3 10 -13 0 -24 -25 -35 -50 -22 -10 6 -32 10
-49 10 -18 0 -31 5 -31 13 -1 23 -40 59 -65 61 -14 0 -26 4 -26 9 -6 35 -21
57 -38 57 -14 0 -17 -7 -13 -31 3 -23 1 -30 -9 -27 -7 2 -15 10 -17 18 -3 7 0
10 7 6 6 -4 9 -2 6 6 -3 7 -23 14 -46 15 -35 1 -40 -1 -38 -20 2 -37 -1 -48
-11 -42 -6 4 -7 -1 -3 -10 5 -14 10 -11 25 14 11 17 24 31 29 31 15 0 10 -10
-21 -42 -28 -27 -42 -56 -21 -44 4 3 6 -6 3 -19 -2 -14 -8 -22 -13 -19 -6 3
-8 -124 -7 -308 l3 -313 2558 -3 2557 -2 0 595 c0 327 -4 595 -8 595 -4 0 -6
-38 -5 -85z m3 -221 c0 -2 -9 -4 -21 -4 -11 0 -18 4 -14 10 5 8 35 3 35 -6z
m-90 -59 c0 -19 -5 -25 -20 -25 -20 0 -20 1 -3 25 22 30 23 30 23 0z m-70 -90
c0 -9 -11 -13 -32 -13 -30 1 -31 2 -10 11 12 6 22 14 22 19 0 5 5 6 10 3 6 -3
10 -12 10 -20z m-95 -35 c-4 -13 0 -26 11 -37 16 -16 15 -18 -12 -26 -16 -5
-60 -9 -99 -10 l-70 -2 -3 -32 c-2 -18 -4 -33 -5 -33 -1 0 -33 -3 -72 -6 -59
-5 -74 -10 -94 -32 -13 -15 -36 -28 -50 -30 -14 -2 -30 -10 -34 -18 -8 -13
-12 -13 -34 1 -19 13 -27 14 -33 5 -6 -9 -13 -9 -29 -1 -11 7 -21 16 -21 21 0
15 -20 12 -37 -6 -17 -16 -54 -16 -60 1 -2 6 6 11 17 12 12 1 29 11 38 23 14
18 30 22 87 25 86 3 108 11 100 36 -7 22 -10 22 54 8 32 -7 48 -15 45 -23 -6
-15 52 -21 61 -5 4 5 -1 20 -12 31 -18 21 -18 21 4 7 12 -7 26 -10 30 -6 4 5
1 12 -6 17 -10 6 -7 8 10 8 33 0 100 26 114 46 9 12 19 14 43 6 19 -5 34 -5
37 1 4 5 1 9 -6 9 -7 0 -4 7 7 15 25 19 26 19 19 -5z m-4401 -74 c-19 -14 -19
-15 0 -22 12 -5 21 -3 23 3 6 17 41 3 46 -19 5 -17 2 -19 -19 -14 -29 8 -31 1
-5 -14 24 -12 69 19 56 39 -6 11 -9 10 -16 0 -7 -11 -9 -11 -9 2 0 27 12 29
30 6 18 -21 19 -21 38 -3 20 17 21 17 34 -3 8 -13 23 -21 39 -21 15 0 29 -7
33 -15 5 -13 -5 -20 -27 -16 -18 3 -18 -31 -1 -44 18 -14 17 -14 -8 -15 -16 0
-27 3 -27 8 4 25 -3 42 -19 42 -10 0 -27 7 -38 15 -29 22 -40 18 -13 -5 13
-10 20 -19 15 -20 -5 0 -17 7 -26 15 -15 14 -19 13 -34 -4 -17 -19 -18 -18
-40 4 -16 16 -31 21 -48 18 -25 -5 -45 18 -33 37 10 16 -29 21 -41 5 -9 -12
-13 -13 -21 -3 -22 28 -24 38 -9 32 9 -3 13 -10 10 -15 -3 -5 -1 -9 5 -9 5 0
13 5 16 10 4 6 12 10 18 9 7 -1 19 1 27 4 21 8 54 14 59 10 3 -2 -4 -10 -15
-17z m3776 -86 c0 -5 -2 -10 -4 -10 -3 0 -8 5 -11 10 -3 6 -1 10 4 10 6 0 11
-4 11 -10z m-3465 -41 c-4 -5 0 -9 7 -9 9 0 9 -3 -2 -10 -27 -18 -40 -11 -40
20 0 28 2 30 20 20 11 -6 18 -15 15 -21z m3388 -7 c-2 -6 4 -9 12 -6 8 4 15 1
15 -5 0 -6 -13 -11 -28 -11 -15 0 -33 -5 -40 -12 -9 -9 -9 -4 0 20 8 21 18 31
28 29 8 -2 14 -8 13 -15z m-2637 -43 c3 -6 0 -16 -7 -21 -11 -7 -11 -11 -1
-15 25 -10 11 -21 -25 -18 -88 7 -179 45 -109 45 13 0 32 3 41 6 11 5 18 0 22
-15 3 -14 13 -21 29 -21 19 0 24 5 24 25 0 26 14 33 26 14z m245 -27 c-17 -6
-13 -32 4 -32 22 0 54 31 48 46 -3 8 0 14 6 14 6 0 11 -8 11 -19 0 -24 25 -45
45 -37 9 3 26 -1 39 -9 25 -17 60 -10 49 9 -4 6 4 4 18 -5 14 -10 38 -15 55
-13 16 2 23 1 15 -2 -11 -5 -11 -8 0 -14 7 -5 25 -2 42 6 27 14 28 14 25 -3
-2 -13 -12 -18 -35 -17 -18 1 -30 -3 -27 -8 3 -5 12 -7 20 -4 7 3 16 1 19 -4
3 -4 -1 -11 -7 -13 -8 -3 -6 -6 5 -6 9 -1 17 6 17 15 0 8 5 12 10 9 6 -4 10 7
10 24 0 30 13 41 25 21 3 -5 21 -9 38 -7 26 2 31 -1 29 -15 -2 -10 2 -18 7
-18 18 0 23 21 9 38 -12 15 -11 16 5 3 16 -12 22 -13 40 -2 22 13 22 13 -1
-11 -12 -13 -19 -28 -15 -33 5 -4 3 -5 -4 -2 -6 4 -13 2 -15 -4 -3 -9 -9 -9
-25 -1 -17 9 -24 8 -34 -4 -9 -11 -22 -14 -41 -10 -20 4 -30 1 -34 -9 -5 -12
-12 -11 -42 5 -26 14 -38 16 -43 8 -10 -15 -99 -14 -109 2 -6 10 -15 10 -39 2
-25 -9 -34 -8 -46 5 -11 11 -13 19 -5 27 12 15 3 26 -22 26 -10 0 -18 -7 -18
-17 -1 -17 -1 -17 -13 -1 -15 19 -74 38 -63 20 4 -6 -2 -16 -13 -21 -14 -8
-20 -7 -25 4 -3 9 3 19 15 26 11 6 25 24 31 40 10 29 11 29 30 12 11 -10 15
-19 9 -21z m2050 -2 c5 0 6 7 3 15 -5 11 -2 13 10 9 9 -3 13 -10 10 -15 -3 -5
0 -9 5 -9 6 0 11 7 11 15 0 12 4 13 26 3 23 -11 24 -13 10 -24 -9 -6 -28 -10
-43 -8 -15 1 -34 -1 -42 -5 -8 -5 -28 -5 -44 0 -20 6 -35 5 -44 -3 -10 -8 -18
-7 -31 4 -10 9 -33 14 -54 13 -25 -1 -39 3 -43 13 -7 18 3 31 13 15 8 -12 24
-16 65 -14 19 1 26 5 21 13 -5 8 2 10 22 6 16 -3 40 -2 54 2 19 5 27 2 34 -12
5 -10 13 -18 17 -18z m-2484 6 c-5 -14 -57 -21 -57 -7 0 6 7 11 15 11 8 0 15
4 15 10 0 5 7 7 15 3 9 -3 14 -11 12 -17z m348 14 c-3 -5 -11 -10 -16 -10 -6
0 -7 5 -4 10 3 6 11 10 16 10 6 0 7 -4 4 -10z m1835 0 c0 -5 -4 -10 -10 -10
-5 0 -10 5 -10 10 0 6 5 10 10 10 6 0 10 -4 10 -10z m470 -26 c0 -2 -9 -4 -21
-4 -11 0 -18 4 -14 10 5 8 35 3 35 -6z m-457 -1 c-7 -2 -21 -2 -30 0 -10 3 -4
5 12 5 17 0 24 -2 18 -5z m52 -3 c-3 -5 -14 -10 -23 -10 -15 0 -15 2 -2 10 20
13 33 13 25 0z m-356 -25 c0 -5 -4 -19 -9 -30 -8 -19 -9 -19 -9 1 -1 14 -9 24
-23 28 -33 8 -40 7 -33 -4 4 -6 11 -8 16 -5 5 4 9 2 9 -3 0 -6 -6 -12 -12 -14
-20 -7 -73 6 -73 17 0 6 -3 9 -7 8 -5 -2 -8 2 -8 8 0 7 27 9 75 8 44 -2 75 -8
74 -14z m-843 -8 c8 3 14 0 14 -6 0 -6 -9 -11 -20 -11 -13 0 -20 6 -19 18 0 9
3 12 5 5 3 -7 12 -9 20 -6z m674 -5 c-8 -2 -21 -12 -28 -21 -11 -14 -14 -14
-22 -1 -13 20 14 40 43 32 15 -4 17 -7 7 -10z m-412 -9 c-2 -12 3 -18 13 -17
11 1 15 -5 12 -17 -4 -15 -1 -18 13 -13 15 5 16 4 5 -4 -17 -12 -43 -4 -34 11
4 6 0 8 -10 4 -10 -4 -16 -2 -14 6 2 12 -5 12 -65 2 -16 -2 -28 1 -28 6 0 6
10 9 23 8 12 -1 35 2 52 6 26 7 27 9 10 16 -18 7 -18 8 3 8 16 1 22 -4 20 -16z
m293 -10 c-10 -4 -10 -7 -1 -13 17 -10 51 0 43 13 -3 6 -1 7 6 3 15 -9 7 -22
-18 -29 -28 -7 -56 16 -47 38 5 15 9 16 19 5 9 -10 9 -14 -2 -17z m-464 -4
c-4 -14 -2 -19 7 -16 7 3 13 -1 13 -9 0 -7 -3 -11 -7 -9 -4 2 -20 1 -37 -4
-24 -7 -29 -6 -30 10 -1 12 5 19 17 19 10 0 21 4 24 8 3 5 -8 6 -25 4 -16 -2
-29 -8 -29 -13 0 -5 -11 -9 -24 -9 -13 0 -27 -8 -30 -17 -6 -15 -8 -15 -16 -3
-6 9 -5 19 1 25 8 8 76 25 133 34 4 0 6 -8 3 -20z m65 5 c-12 -8 -27 -12 -34
-8 -8 5 -6 10 8 15 35 14 50 10 26 -7z m184 9 c-10 -11 -37 -12 -30 -2 3 5 12
9 21 9 9 0 13 -3 9 -7z m353 -23 c-13 -9 -39 -2 -39 10 0 4 12 5 26 2 17 -3
22 -7 13 -12z m-171 -13 c2 -9 -2 -17 -8 -17 -6 0 -8 5 -4 11 3 6 0 16 -7 21
-12 8 -11 9 1 5 8 -2 16 -11 18 -20z m-327 -11 c5 3 9 0 9 -6 0 -6 5 -8 10 -5
6 4 7 12 4 18 -5 9 -4 9 5 1 10 -9 10 -16 -1 -33 -16 -26 -25 -27 -33 -2 -4
12 -12 18 -21 14 -7 -3 -14 0 -14 7 0 6 5 8 10 5 6 -3 10 0 11 7 0 10 2 10 6
0 2 -6 9 -10 14 -6z m774 4 c3 -5 2 -10 -4 -10 -5 0 -13 5 -16 10 -3 6 -2 10
4 10 5 0 13 -4 16 -10z m281 1 c-9 -15 5 -43 19 -37 7 2 18 -1 25 -7 10 -9 11
-9 5 2 -6 11 -4 13 8 8 9 -3 17 -2 19 3 2 4 10 1 18 -8 13 -14 12 -15 -3 -9
-9 3 -19 3 -21 -2 -6 -8 -317 -7 -353 2 -13 3 -25 2 -28 -3 -3 -5 -18 -5 -34
0 -16 4 -31 6 -34 4 -2 -2 -43 -5 -91 -5 -83 -2 -122 9 -101 28 4 5 10 2 12
-4 6 -16 53 -17 53 -2 0 5 4 7 10 4 6 -3 7 1 4 10 -5 13 -2 14 20 5 14 -5 26
-6 26 -1 0 5 17 6 38 2 48 -8 64 -7 80 2 6 5 12 4 12 0 0 -12 48 -15 55 -3 10
15 42 12 49 -5 4 -12 10 -14 25 -5 13 7 22 7 26 0 3 -5 17 -10 31 -10 14 0 22
4 19 10 -8 14 6 13 46 -4 35 -14 63 -11 53 5 -5 9 3 29 12 29 3 0 3 -4 0 -9z
m-1111 -40 c-3 -6 -11 -11 -16 -11 -5 0 -4 6 3 14 14 16 24 13 13 -3z m1058
-78 c9 23 122 25 130 2 4 -8 3 -16 -1 -18 -11 -6 -77 -1 -90 7 -7 4 -12 3 -12
-1 0 -5 -11 -10 -25 -11 -14 -1 -25 4 -25 11 0 8 -4 7 -10 -3 -7 -11 -10 -11
-10 -2 0 9 -13 12 -38 11 -21 -2 -43 1 -50 5 -7 4 -12 3 -12 -2 0 -5 -13 -8
-30 -7 -16 1 -30 0 -30 -4 0 -12 -71 -12 -85 -1 -7 6 -25 9 -39 6 -14 -3 -28
0 -31 5 -4 5 0 9 7 10 7 1 27 2 43 4 73 8 221 9 234 1 10 -7 12 -6 6 4 -6 10
-3 12 13 8 13 -4 22 -1 22 5 1 7 7 -1 14 -18 10 -24 13 -26 19 -12z m120 -58
c-3 -9 -8 -14 -10 -11 -3 3 -2 9 2 15 9 16 15 13 8 -4z m-33 -15 c0 -5 -8 -10
-17 -10 -15 0 -16 2 -3 10 19 12 20 12 20 0z m-280 -15 c0 -9 -6 -12 -16 -8
-13 5 -13 7 -2 14 17 11 18 11 18 -6z"/>
<path d="M4445 540 c-4 -6 -10 -8 -15 -5 -4 3 -6 -4 -3 -14 3 -13 12 -18 25
-16 27 6 30 9 22 29 -7 18 -20 21 -29 6z"/>
<path d="M4340 530 c-8 -5 -18 -6 -22 -4 -4 3 -5 -1 -2 -9 3 -10 15 -12 41 -8
36 6 59 31 29 31 -9 0 -16 -6 -16 -12 0 -10 -2 -10 -8 -1 -5 8 -13 9 -22 3z"/>
<path d="M2140 357 c0 -15 2 -27 4 -27 2 0 13 -3 23 -7 17 -6 17 -5 1 13 -9
10 -17 23 -16 27 0 5 -3 11 -6 15 -3 3 -6 -7 -6 -21z"/>
<path d="M1885 340 c-3 -6 1 -7 9 -4 18 7 21 14 7 14 -6 0 -13 -4 -16 -10z"/>
<path d="M3378 303 c7 -3 16 -2 19 1 4 3 -2 6 -13 5 -11 0 -14 -3 -6 -6z"/>
<path d="M5075 1090 c-3 -6 1 -7 9 -4 18 7 21 14 7 14 -6 0 -13 -4 -16 -10z"/>
<path d="M5074 1061 c4 -5 0 -12 -6 -14 -7 -3 -3 -6 10 -6 13 -1 22 5 22 14 0
8 -7 15 -16 15 -8 0 -13 -4 -10 -9z"/>
<path d="M4970 1009 c0 -5 5 -7 10 -4 6 3 10 8 10 11 0 2 -4 4 -10 4 -5 0 -10
-5 -10 -11z"/>
<path d="M4920 954 c-17 -15 -29 -28 -27 -31 3 -2 20 10 38 26 41 38 33 41
-11 5z"/>
<path d="M122 938 c2 -6 10 -14 16 -16 7 -2 10 2 6 12 -7 18 -28 22 -22 4z"/>
<path d="M4990 939 c0 -5 5 -7 10 -4 6 3 10 8 10 11 0 2 -4 4 -10 4 -5 0 -10
-5 -10 -11z"/>
<path d="M4974 905 c-4 -8 -16 -15 -28 -15 -15 0 -29 -12 -44 -39 -21 -38 -44
-52 -69 -44 -24 8 -13 25 12 21 14 -3 25 -1 25 3 0 5 -13 9 -30 9 -23 0 -30
-5 -30 -19 0 -11 6 -22 13 -24 6 -3 -2 -6 -20 -6 -21 -1 -38 -9 -51 -26 -24
-31 -30 -31 -34 -2 -2 16 -9 21 -26 20 -13 -2 -21 1 -17 7 4 6 -1 7 -11 3 -11
-4 -13 -8 -6 -11 12 -4 17 -44 6 -55 -14 -14 -31 5 -26 30 3 16 1 24 -5 20 -6
-4 -9 -18 -7 -33 2 -17 -2 -24 -11 -21 -7 3 -17 -5 -24 -19 -6 -13 -16 -24
-23 -24 -9 0 -8 -3 2 -11 13 -9 13 -10 0 -6 -8 2 -15 8 -15 13 -1 21 -17 35
-29 25 -7 -6 -17 -7 -21 -3 -5 4 -6 2 -2 -3 3 -6 -1 -18 -8 -29 -11 -14 -27
-18 -75 -18 -42 0 -63 -4 -67 -13 -3 -11 -11 -11 -30 -4 -23 8 -24 8 -13 -6
15 -18 47 -20 52 -3 3 7 29 13 67 14 54 2 65 6 83 30 21 26 22 26 29 5 12 -31
43 -26 56 9 8 21 18 30 35 30 32 0 45 11 49 39 5 34 29 40 29 7 0 -37 45 -37
54 -1 5 19 13 25 35 25 52 0 90 20 113 61 12 21 29 39 38 39 9 0 25 9 35 20
11 12 13 20 6 20 -6 0 -14 -7 -17 -15z"/>
<path d="M95 874 l-30 -13 30 6 c32 6 41 11 34 17 -2 2 -17 -2 -34 -10z"/>
<path d="M165 869 c-3 -4 11 -9 30 -11 19 -2 35 -1 35 3 0 9 -60 17 -65 8z"/>
<path d="M4865 871 c-3 -6 -21 -11 -40 -11 -45 0 -65 -9 -58 -25 3 -9 -5 -17
-22 -21 -14 -3 -24 -8 -22 -11 11 -10 56 11 60 28 4 14 14 19 39 19 35 0 67
15 56 25 -3 4 -9 2 -13 -4z"/>
<path d="M241 848 c-1 -23 9 -48 21 -48 7 0 7 4 0 13 -5 6 -12 21 -15 32 -3
15 -5 16 -6 3z"/>
<path d="M288 793 c6 -2 18 -2 25 0 6 3 1 5 -13 5 -14 0 -19 -2 -12 -5z"/>
<path d="M160 780 c0 -6 7 -10 15 -10 8 0 15 2 15 4 0 2 -7 6 -15 10 -8 3 -15
1 -15 -4z"/>
<path d="M4530 770 c0 -5 5 -10 10 -10 6 0 10 5 10 10 0 6 -4 10 -10 10 -5 0
-10 -4 -10 -10z"/>
<path d="M508 713 c7 -3 16 -2 19 1 4 3 -2 6 -13 5 -11 0 -14 -3 -6 -6z"/>
<path d="M570 700 c-9 -6 -10 -10 -3 -10 6 0 15 5 18 10 8 12 4 12 -15 0z"/>
<path d="M4346 693 c-3 -7 4 -17 14 -23 12 -6 20 -7 20 -1 0 5 -6 12 -12 14
-7 3 -2 6 12 7 14 1 40 3 58 6 17 2 32 -1 32 -6 0 -6 4 -10 10 -10 5 0 7 7 4
15 -7 18 -131 17 -138 -2z"/>
<path d="M630 689 c0 -5 5 -7 10 -4 6 3 10 8 10 11 0 2 -4 4 -10 4 -5 0 -10
-5 -10 -11z"/>
<path d="M847 694 c-13 -13 -7 -24 14 -24 11 0 19 5 17 12 -5 14 -22 21 -31
12z"/>
<path d="M4690 690 c0 -5 7 -10 15 -10 8 0 15 5 15 10 0 6 -7 10 -15 10 -8 0
-15 -4 -15 -10z"/>
<path d="M4227 678 c7 -8 10 -17 7 -20 -2 -3 2 -8 10 -11 8 -3 16 2 19 14 3
10 1 19 -3 19 -5 0 -17 3 -27 7 -15 6 -16 4 -6 -9z"/>
<path d="M280 670 c8 -5 22 -10 30 -10 13 0 13 1 0 10 -8 5 -22 10 -30 10 -13
0 -13 -1 0 -10z"/>
<path d="M1145 650 c-16 -7 -17 -9 -3 -9 9 -1 20 4 23 9 7 11 7 11 -20 0z"/>
<path d="M655 640 c-3 -5 1 -10 10 -10 9 0 13 5 10 10 -3 6 -8 10 -10 10 -2 0
-7 -4 -10 -10z"/>
<path d="M780 642 c0 -5 11 -15 25 -22 19 -10 28 -11 37 -2 8 8 5 9 -10 5 -15
-3 -24 0 -28 11 -6 17 -24 22 -24 8z"/>
<path d="M698 633 c7 -3 16 -2 19 1 4 3 -2 6 -13 5 -11 0 -14 -3 -6 -6z"/>
<path d="M4168 604 c-25 -27 -36 -33 -57 -28 -18 4 -22 3 -12 -4 22 -16 -4
-24 -34 -10 -21 9 -28 9 -34 -1 -7 -10 -13 -10 -29 -2 -15 8 -23 8 -27 0 -4
-6 -13 -8 -20 -5 -7 2 -16 -1 -18 -8 -6 -15 29 -10 39 5 2 4 16 3 30 -3 18 -9
27 -9 36 0 8 8 17 8 31 1 25 -14 60 3 104 49 28 29 36 32 66 27 19 -4 37 -3
40 2 3 4 -15 9 -39 10 -39 1 -49 -3 -76 -33z"/>
<path d="M3560 615 c-10 -12 -9 -16 5 -21 23 -9 40 10 22 25 -11 9 -17 8 -27
-4z m20 -5 c0 -5 -5 -10 -11 -10 -5 0 -7 5 -4 10 3 6 8 10 11 10 2 0 4 -4 4
-10z"/>
<path d="M4045 619 c-16 -7 -13 -8 13 -4 22 3 39 0 49 -10 16 -17 38 -20 28
-5 -3 6 2 10 11 10 33 0 7 10 -37 14 -24 3 -53 0 -64 -5z"/>
<path d="M880 605 c0 -8 7 -15 16 -15 8 0 22 7 30 15 14 13 12 15 -15 15 -21
0 -31 -5 -31 -15z"/>
<path d="M950 616 c0 -2 8 -10 18 -17 15 -13 16 -12 3 4 -13 16 -21 21 -21 13z"/>
<path d="M3823 613 c-18 -7 -16 -23 2 -23 8 0 15 7 15 15 0 8 -1 15 -2 14 -2
0 -9 -3 -15 -6z"/>
<path d="M3894 612 c3 -6 0 -13 -6 -16 -7 -3 -4 -5 6 -3 21 2 25 19 5 26 -6 2
-9 -1 -5 -7z"/>
<path d="M3983 605 c-3 -9 -3 -19 1 -22 3 -4 6 -1 6 6 0 7 4 9 10 6 6 -3 7 1
4 9 -8 20 -13 20 -21 1z"/>
<path d="M4370 605 c0 -9 5 -15 11 -13 6 2 11 8 11 13 0 5 -5 11 -11 13 -6 2
-11 -4 -11 -13z"/>
<path d="M1031 594 c-1 -6 8 -19 18 -28 16 -14 23 -15 38 -6 16 10 16 11 1 6
-10 -3 -18 -1 -18 4 0 6 -6 10 -14 10 -8 0 -17 6 -19 13 -3 7 -6 7 -6 1z"/>
<path d="M4040 589 c0 -5 5 -7 10 -4 6 3 10 8 10 11 0 2 -4 4 -10 4 -5 0 -10
-5 -10 -11z"/>
<path d="M3415 560 c-4 -6 -11 -8 -16 -5 -5 4 -9 2 -9 -3 0 -11 30 -25 38 -17
3 3 0 5 -8 5 -10 0 -10 3 0 15 7 8 10 15 7 15 -3 0 -9 -5 -12 -10z"/>
<path d="M3890 566 c0 -2 7 -9 15 -16 9 -7 15 -8 15 -2 0 5 -7 12 -15 16 -8 3
-15 4 -15 2z"/>
<path d="M3823 548 c16 -6 33 -6 37 -2 5 5 -7 10 -28 10 -37 2 -37 2 -9 -8z"/>
<path d="M1220 544 c0 -7 52 -25 57 -20 2 2 -10 8 -26 14 -17 6 -31 9 -31 6z"/>
<path d="M3555 541 c-3 -5 -1 -12 5 -16 5 -3 10 -1 10 6 0 8 7 6 19 -5 19 -17
39 -7 26 14 -8 13 -52 13 -60 1z"/>
<path d="M3650 540 c-13 -8 -12 -10 3 -10 9 0 17 5 17 10 0 12 -1 12 -20 0z"/>
<path d="M1405 529 c-4 -6 -5 -12 -2 -15 2 -3 7 2 10 11 7 17 1 20 -8 4z"/>
<path d="M1430 532 c0 -7 5 -12 10 -12 6 0 10 -7 10 -15 0 -8 9 -15 20 -15 11
0 20 7 20 15 0 8 -8 15 -18 15 -10 0 -23 5 -30 12 -9 9 -12 9 -12 0z"/>
<path d="M1550 520 c-6 -11 -8 -20 -6 -20 3 0 10 9 16 20 6 11 8 20 6 20 -3 0
-10 -9 -16 -20z"/>
<path d="M1715 520 c-10 -11 -14 -20 -9 -20 5 0 17 9 27 20 9 11 13 20 8 20
-4 0 -16 -9 -26 -20z"/>
<path d="M1870 525 c0 -8 2 -15 4 -15 2 0 6 7 10 15 3 8 1 15 -4 15 -6 0 -10
-7 -10 -15z"/>
<path d="M3510 526 c0 -8 5 -18 10 -21 6 -3 10 3 10 14 0 12 -4 21 -10 21 -5
0 -10 -6 -10 -14z"/>
<path d="M1367 519 c7 -7 15 -10 18 -7 3 3 -2 9 -12 12 -14 6 -15 5 -6 -5z"/>
<path d="M1655 520 c9 -15 -23 -43 -41 -36 -8 3 -12 10 -9 16 3 5 1 10 -4 10
-13 0 -14 -10 -2 -29 13 -20 56 -6 69 24 10 21 9 25 -4 25 -8 0 -12 -5 -9 -10z"/>
<path d="M2060 511 c0 -6 4 -13 10 -16 6 -3 7 1 4 9 -7 18 -14 21 -14 7z"/>
<path d="M3470 509 c0 -5 5 -7 10 -4 6 3 10 8 10 11 0 2 -4 4 -10 4 -5 0 -10
-5 -10 -11z"/>
<path d="M3815 510 c-3 -5 -2 -10 4 -10 5 0 13 5 16 10 3 6 2 10 -4 10 -5 0
-13 -4 -16 -10z"/>
<path d="M1503 500 c2 -8 12 -16 23 -17 13 -2 15 -1 4 4 -8 3 -19 11 -23 17
-6 7 -7 6 -4 -4z"/>
<path d="M3000 500 c0 -5 5 -10 11 -10 5 0 7 5 4 10 -3 6 -8 10 -11 10 -2 0
-4 -4 -4 -10z"/>
<path d="M3228 503 c7 -3 16 -2 19 1 4 3 -2 6 -13 5 -11 0 -14 -3 -6 -6z"/>
<path d="M1865 490 c-16 -7 -17 -9 -3 -9 9 -1 20 4 23 9 7 11 7 11 -20 0z"/>
<path d="M1917 469 c7 -7 15 -10 18 -7 3 3 -2 9 -12 12 -14 6 -15 5 -6 -5z"/>
<path d="M1165 460 c-7 -11 2 -30 13 -30 4 0 14 5 22 10 13 9 13 11 0 20 -19
12 -27 12 -35 0z"/>
<path d="M2010 460 c18 -12 30 -13 30 -2 0 4 -10 9 -22 9 -18 2 -20 0 -8 -7z"/>
<path d="M2098 443 c7 -3 16 -2 19 1 4 3 -2 6 -13 5 -11 0 -14 -3 -6 -6z"/>
<path d="M3330 440 c0 -5 4 -10 9 -10 6 0 13 5 16 10 3 6 -1 10 -9 10 -9 0
-16 -4 -16 -10z"/>
<path d="M2335 430 c3 -5 11 -10 16 -10 6 0 7 5 4 10 -3 6 -11 10 -16 10 -6 0
-7 -4 -4 -10z"/>
<path d="M3270 411 c0 -6 11 -11 24 -11 38 0 56 -10 56 -31 0 -16 6 -19 36
-17 38 2 52 12 33 23 -6 4 -15 3 -21 -3 -13 -13 -38 -4 -38 14 0 7 -12 16 -27
20 -16 3 -36 8 -45 11 -10 2 -18 0 -18 -6z"/>
</g>
</svg>
